<svg id="adobe-xd-1" xmlns="http://www.w3.org/2000/svg" width="503.385" height="490.8" viewBox="0 0 503.385 490.8">
  <path id="Path_12" data-name="Path 12" d="M414.245,490.8H89.139A89.061,89.061,0,0,1,0,401.661V89.139A89.061,89.061,0,0,1,89.139,0H414.245a89.061,89.061,0,0,1,89.139,89.139V401.661A89.061,89.061,0,0,1,414.245,490.8Z"/>
  <path id="Path_13" data-name="Path 13" d="M489.49,553.038H180.332A76.266,76.266,0,0,1,104.2,476.906V180.332A76.266,76.266,0,0,1,180.332,104.2H489.289a76.124,76.124,0,0,1,76.132,76.132V476.7a76.009,76.009,0,0,1-75.93,76.333Z" transform="translate(-83.219 -83.219)" fill="#fff"/>
  <path id="Path_14" data-name="Path 14" d="M571.757,703.1,630.492,815.94c1.047,1.672.423,3.363-1.269,3.363h-36.5c-2.316,0-3.363-.624-4.41-2.718-13.431-27.687-27.062-55.373-41.117-85.153h-.423c-12.584,28.109-26.438,57.688-39.848,85.374-1.047,1.671-2.094,2.316-3.786,2.316H468.563c-2.093,0-2.315-1.671-1.248-2.939l57.466-109.5L469.208,595.941c-1.269-1.671,0-2.939,1.248-2.939h36.083c2.094,0,2.94.422,3.765,2.315,13.209,27.687,26.639,56.218,39.224,84.106h.423c12.162-27.687,25.592-56.419,38.6-83.9,1.047-1.671,1.671-2.719,3.786-2.719H626.1c1.671,0,2.315,1.269,1.269,2.94Zm69.024,34.19c0-48.869,32.519-87.045,84.106-87.045a92.347,92.347,0,0,1,10.913.423V595.095A2.09,2.09,0,0,1,737.895,593h33.143c1.671,0,2.094.624,2.094,1.671V787.228a149.829,149.829,0,0,0,1.047,20.558c0,1.269-.423,1.671-1.671,2.316a124.87,124.87,0,0,1-53.7,12.161c-45.526.181-78.044-27.908-78.025-84.971Zm95-53.681a31.525,31.525,0,0,0-12.162-2.094c-26.438,0-44.882,20.337-44.882,54.124,0,38.6,18.887,54.124,42.586,54.124,5.034,0,10.491-.624,14.477-2.315V683.61Z" transform="translate(-372.72 -473.437)"/>
</svg>
