<svg xmlns="http://www.w3.org/2000/svg" width="714" height="371.355" viewBox="0 0 714 371.355">
  <g id="apache-spark-5" transform="translate(0 0.003)">
    <path id="Path_15" data-name="Path 15" d="M323.778,187.379c-.635-1.307-.9-1.979-1.232-2.613-8.96-17.024-17.882-34.01-26.917-51a3.151,3.151,0,0,1,.448-4.181q21.335-24.919,42.558-49.988a4.53,4.53,0,0,0,1.12-2.24l-12.432,3.248q-25.815,6.832-51.556,13.7c-1.605.411-2.315-.037-3.136-1.381q-14.672-24.471-29.38-48.868a6.667,6.667,0,0,0-2.128-2.389c-.784,4.331-1.605,8.7-2.352,13.029L230.6,100.73c-.3,1.643-.709,3.323-.859,4.965-.149,1.568-.933,2.165-2.389,2.613q-30.407,9.52-60.74,19.189a7.113,7.113,0,0,0-2.725,1.493c16.575,6.57,33.114,13.178,49.951,19.861-.6.485-1.008.859-1.456,1.157q-15.512,10.024-31.061,20.122a3.276,3.276,0,0,1-3.621.3c-12.357-5.563-24.789-11.013-37.183-16.576a38.174,38.174,0,0,1-14.448-10.528c-8.81-10.789-7.056-23.034,4.667-30.5a55.164,55.164,0,0,1,12.544-5.712c19.861-6.458,39.759-12.693,59.657-18.965a3.414,3.414,0,0,0,2.763-3.061c2.651-15.344,5.413-30.687,8.176-46.031,1.493-8.213,2.277-16.613,6.272-24.117A40.262,40.262,0,0,1,225.706,6.8c7.914-8.773,18.927-9.109,27.29-.747a52.121,52.121,0,0,1,7.354,9.557c9.221,15.008,18.255,30.127,27.29,45.247,1.045,1.792,2.016,2.165,3.995,1.605q33.319-8.9,66.638-17.7a31.918,31.918,0,0,1,13.925-.784c10.229,1.9,14.709,9.706,11.274,19.6a37.413,37.413,0,0,1-7.354,11.909q-23.239,27.383-46.553,54.692a3.167,3.167,0,0,0-.411,4.219c9.3,17.509,18.479,35.018,27.7,52.564,2.2,4.181,3.883,8.549,3.957,13.365a21.559,21.559,0,0,1-18.778,21.5c-6.085.9-11.76-.411-17.471-2.165q-20.887-6.44-41.812-12.73a2.362,2.362,0,0,1-2.016-2.277c-1.605-9.818-3.36-19.6-5.04-29.418a8.069,8.069,0,0,1,.075-1.157c15.866,4.405,31.62,8.736,48.009,13.29" transform="translate(329.387 0)" fill-rule="evenodd"/>
    <g id="Group_22" data-name="Group 22" transform="translate(0 147.569)">
      <path id="Path_16" data-name="Path 16" d="M626.024,222.319c-12.544-.037-25.125-.075-37.668-.037a3.649,3.649,0,0,1-3.509-1.9q-22.287-33.935-44.724-67.833c-.485-.709-.971-1.419-1.829-2.613-3.211,24.415-6.346,48.271-9.482,72.2h-32.89c.373-3.211.709-6.309,1.12-9.37q4.816-36.791,9.669-73.545,4.592-35.111,9.258-70.259a2.955,2.955,0,0,1,1.12-1.941C528.4,59.625,539.75,52.345,551.1,44.991a6.319,6.319,0,0,1,.971-.3c-3.435,26.17-6.832,52.153-10.266,78.136a2.854,2.854,0,0,1,.411.3c17.807-19.749,35.615-39.5,53.833-59.657l1.419,8.213c1.269,7.429,2.5,14.9,3.883,22.325a3.549,3.549,0,0,1-1.12,3.472q-17.248,18.087-34.458,36.212c-.485.523-.971,1.083-1.568,1.68.373.6.672,1.157,1.045,1.68l59.433,83.4a14.742,14.742,0,0,0,1.307,1.344,2.837,2.837,0,0,1,.037.523M236.313,150.044a76,76,0,0,0-1.979-9.818c-5.525-16.986-22.922-26.319-40.991-22.1-19.786,4.592-33.935,20.159-35.988,40.356-1.531,14.933,6.533,29.343,21.5,34.719,12.058,4.368,23.631,2.539,34.42-3.92C227.54,180.731,235.305,168,236.313,150.044ZM149.4,213.21c-.971,7.317-1.9,14.186-2.8,21.093-1.195,9.146-2.389,18.33-3.547,27.477-.149,1.083-.448,1.531-1.605,1.531q-13.552-.056-27.1-.037a4.534,4.534,0,0,1-.9-.261c.56-4.331,1.083-8.661,1.643-12.992q2.968-22.791,6.01-45.583c2.315-17.36,4.144-34.831,7.093-52.078,5.227-30.575,31.172-56.894,61.6-63.465,17.621-3.808,34.532-2.053,49.913,7.877,15.344,9.893,24.154,24.266,26.17,42.335,2.837,25.535-6.57,46.74-24.714,64.286a76.512,76.512,0,0,1-42.633,21.317c-16.949,2.539-32.89-.261-47.151-10.266-.523-.373-1.083-.672-1.979-1.232M134.695,67.95c-10.117,7.541-19.9,14.821-29.679,22.1-1.568-2.5-2.987-4.965-4.667-7.28-4.256-5.936-9.557-10.378-17.21-10.938a19.16,19.16,0,0,0-16.2,6.384,11.367,11.367,0,0,0-.784,14.97c3.995,5.227,8.4,10.192,12.842,15.045,7.429,8.026,15.157,15.754,22.549,23.855,6.72,7.355,12.058,15.6,13.7,25.647,1.979,11.946-.411,23.333-6.085,33.86-10.453,19.45-26.954,30.724-48.681,34.234a64.22,64.22,0,0,1-28.559-1.493C19.487,220.676,10.826,212.5,5.264,201,3.285,196.933,1.792,192.64,0,188.272c10.9-5.824,21.466-11.5,32.218-17.247.373.9.635,1.643.971,2.352,1.829,3.659,3.323,7.541,5.6,10.938,6.72,10.005,17.583,13.029,28.6,8.1a31.384,31.384,0,0,0,7.877-5.115c7.093-6.309,8.437-15.082,3.173-23a113.035,113.035,0,0,0-10.49-12.73c-8.773-9.744-17.919-19.189-26.506-29.119a46.292,46.292,0,0,1-11.2-24.042,41.123,41.123,0,0,1,5.824-27.887c12.954-20.943,31.77-31.844,56.67-30.948,14.186.523,25.5,7.168,34.271,18.181,2.613,3.248,5.04,6.645,7.69,10.192M375.189,180.432c-1.643,12.618-3.211,24.6-4.816,36.586a2.488,2.488,0,0,1-1.083,1.68c-24.49,11.349-56.782,9.781-76.9-13.1-10.826-12.282-15.344-26.842-14.672-43.044,1.568-37.519,32.666-70.3,69.886-74.851,21.727-2.688,40.8,3.211,55.55,20.085a55.932,55.932,0,0,1,14,40.393c-.448,10.005-2.016,19.973-3.285,29.94-1.755,14.112-3.7,28.223-5.562,42.335-.075.485-.149,1.008-.3,1.643H378.7c.373-3.248.747-6.421,1.157-9.594,2.128-16.314,4.443-32.554,6.309-48.905,1.157-10.154.448-20.271-4.219-29.679-4.928-10.005-13.253-15.306-24.154-16.464-22.586-2.389-44.052,13.29-48.868,35.5-3.173,14.672,1.829,28.708,13.514,36.511,11.386,7.578,23.594,7.578,35.988,2.688,6.309-2.464,11.648-6.421,16.762-11.722m123.42-89.9c-1.344,10.154-2.651,20.159-3.995,30.388-6.2,0-12.282-.037-18.367,0a11.573,11.573,0,0,0-10.9,7.8,31.5,31.5,0,0,0-1.045,5.6q-4.648,35-9.221,70.035c-.784,5.9-1.531,11.76-2.315,17.733h-30.5c.56-4.48,1.12-8.848,1.68-13.178q2.968-22.679,5.973-45.359c1.755-13.066,3.285-26.207,5.339-39.236,2.725-17.471,20.122-33,37.78-33.748,8.437-.336,16.874-.037,25.573-.037" transform="translate(0 -39.526)" fill-rule="evenodd"/>
    </g>
  </g>
</svg>
