<svg id="aws-dynamodb-seeklogo.com" xmlns="http://www.w3.org/2000/svg" width="418.025" height="471.097" viewBox="0 0 418.025 471.097">
  <path id="Path_54" data-name="Path 54" d="M165.285,471.1h5.728l93.5-46.757,1.556-2.2V48.929l-1.556-2.211L171.013,0h-5.8l.07,471.1" transform="translate(104.567)" fill="#b4b4b4"/>
  <path id="Path_55" data-name="Path 55" d="M130.31,471.1H124.5L31.08,424.34l-1.9-3.261-.962-370.25,2.858-4.112L124.5,0h5.88l-.072,471.1" transform="translate(17.862)" fill="#454545"/>
  <path id="Path_56" data-name="Path 56" d="M87.285,0H220.246V471.1H87.285Z" transform="translate(55.244)" fill="#747474"/>
  <path id="Path_57" data-name="Path 57" d="M418.025,206.857l-3.16-.7-45.114-4.206-.669.333L275.5,198.541H142.529l-93.587,3.743V130.918l-.1.052.1-.209,93.587-21.685H275.5l93.585,21.685,34.4,18.287V137.292l14.539-1.59-1.506-2.936L370.485,99.847l-1.4.456L275.5,71.3H142.529l-93.587,29V28.61L0,85.946v50.075l.379-.274,14.161,1.545v12L0,157.071V206.9l.379-.039,14.161.209v20.913l-12.217.183L0,227.939v49.845L14.539,285.6V297.74L.609,299.278,0,298.821v50.067l48.942,57.345V334.546l93.587,29H275.5l93.861-29.084,1.248.547,45.429-32.433,1.99-3.232-14.539-1.6V285.846l-1.906-.761-31.1,16.762-1.127,2.351L275.5,325.757v.026H142.529v-.026L48.942,304.107V232.481l93.587,3.73v.091H275.5l93.585-3.821,2.131.98,43.728-3.765,3.085-1.507-14.539-.209V207.066l14.539-.209" transform="translate(0 18.108)"/>
  <path id="Path_58" data-name="Path 58" d="M226.027,229.686v71.687l48.943-57.345v-49.74L226.309,229.6l-.282.085" transform="translate(143.055 122.967)" fill="#747474"/>
  <path id="Path_59" data-name="Path 59" d="M226.027,226.989l.282-.065,48.661-26.172V150.7l-48.943,4.5v71.783" transform="translate(143.055 95.382)" fill="#747474"/>
  <path id="Path_60" data-name="Path 60" d="M226.309,91.233l-.282-.065V162.69l48.943,4.574V117.241L226.309,91.233" transform="translate(143.055 57.701)" fill="#747474"/>
  <path id="Path_61" data-name="Path 61" d="M226.309,100.584,274.97,135.7V85.96L226.027,28.61V100.3l.282.1v.183" transform="translate(143.055 18.108)" fill="#747474"/>
</svg>
