<svg xmlns="http://www.w3.org/2000/svg" width="520.604" height="629.206" viewBox="0 0 520.604 629.206">
  <g id="XMLID_1_" transform="translate(-99 -67.5)">
    <path id="XMLID_2_" d="M140.89,130.8,99,151.831V519.874l41.89,20.859.345-.345V131.145l-.345-.345" transform="translate(0 45.82)"/>
    <path id="XMLID_3_" d="M347.746,487.293,123.3,540.732V130.8l224.446,52.233v304.26" transform="translate(17.59 45.82)" fill="#747474"/>
    <path id="XMLID_4_" d="M194.8,350.628l95.157,12.067.517-1.379.69-156.009-1.207-1.207L194.8,215.995V350.628" transform="translate(69.345 98.878)" fill="#454545"/>
    <path id="XMLID_5_" d="M250,487.982,468.24,540.9l.345-.517V131.145l-.345-.345L250,183.722v304.26" transform="translate(109.302 45.82)"/>
    <path id="XMLID_6_" d="M345.157,350.628,250,362.694V204.1l95.157,11.895V350.628" transform="translate(109.302 98.878)" fill="#747474"/>
    <path id="XMLID_7_" d="M385.113,183.623l-95.157,17.411L194.8,183.623,289.784,158.8l95.329,24.823" transform="translate(69.345 66.088)" fill="#3c3c3c"/>
    <path id="XMLID_8_" d="M385.113,334.183,289.957,316.6,194.8,334.183l94.984,26.547,95.329-26.547" transform="translate(69.345 180.312)" fill="#bcbcbc"/>
    <path id="XMLID_9_" d="M194.8,249.711l95.157-23.444.69-.345V68.19l-.69-.69L194.8,115.078V249.711" transform="translate(69.345)" fill="#454545"/>
    <path id="XMLID_10_" d="M345.157,249.711,250,226.267V67.5l95.157,47.578V249.711" transform="translate(109.302)" fill="#747474"/>
    <path id="XMLID_11_" d="M289.957,509.011,194.8,461.433V326.8l95.157,23.444,1.379,1.724-.345,154.285-1.034,2.758" transform="translate(69.345 187.695)" fill="#454545"/>
    <path id="XMLID_12_" d="M250,509.011l95.157-47.578V326.8L250,350.244V509.011" transform="translate(109.302 187.695)" fill="#747474"/>
    <path id="XMLID_13_" d="M376.6,130.8l42.062,21.031V519.874L376.6,540.9V130.8" transform="translate(200.942 45.82)" fill="#747474"/>
  </g>
</svg>
