<svg xmlns="http://www.w3.org/2000/svg" width="414.815" height="431.717" viewBox="0 0 414.815 431.717">
  <g id="Working" transform="translate(-93.084 -67.379)">
    <path id="Path_7" data-name="Path 7" d="M344.344,438.837h-102.4a13.491,13.491,0,0,1-12.277-7.69L86.123,122.739H28.111A13.491,13.491,0,0,1,14.62,109.248V20.611A13.491,13.491,0,0,1,28.111,7.12H156.142a13.491,13.491,0,0,1,12.007,7.825L311.425,323.353h32.918a13.491,13.491,0,0,1,13.491,13.491v88.5A13.491,13.491,0,0,1,344.344,438.837Z" transform="translate(150.064 60.259)"/>
    <path id="Path_8" data-name="Path 8" d="M132.314,286.195H22.766A13.491,13.491,0,0,1,10.624,266.9L125.164,27.03a13.491,13.491,0,0,1,12.142-7.69h0A13.491,13.491,0,0,1,149.448,26.9l54.909,113.326a13.492,13.492,0,0,1,0,11.6L144.456,278.5A13.491,13.491,0,0,1,132.314,286.195Z" transform="translate(83.771 212.901)"/>
  </g>
</svg>
