<svg id="aws-ec2" xmlns="http://www.w3.org/2000/svg" width="405.955" height="490.152" viewBox="0 0 405.955 490.152">
  <path id="Path_4" data-name="Path 4" d="M60.279,353.991,12.836,364.815V57.565L60.279,68.41V353.991" transform="translate(7.519 33.719)"/>
  <path id="Path_5" data-name="Path 5" d="M101.947,405.845,42.754,422.667V67.572l59.193,16.8V405.845m75.933,18.633-75.933,27.789V37.973L177.88,65.749V424.478m203.031-35.841L177.88,490.152V0L380.911,101.516V388.636" transform="translate(25.044)"/>
  <path id="Path_6" data-name="Path 6" d="M162.452,20.239,202.923,0V490.152l-40.472-20.233V20.239M95.661,53.63l31.33-15.664V452.185l-31.33-15.664V53.63M42.841,80.044,67.8,67.566v355.02L42.841,410.1V80.044M20.355,91.284,0,101.462V388.7l20.355,10.171V91.284" fill="#676767"/>
</svg>
