<svg xmlns="http://www.w3.org/2000/svg" width="406.66" height="412.52" viewBox="0 0 406.66 412.52">
  <g id="Working" transform="translate(205.151 206.459)">
    <g id="Icon_Test" data-name="Icon Test" transform="translate(-205.151 -206.459)">
      <path id="Path_82" data-name="Path 82" d="M373.981,250.559a44.8,44.8,0,0,0-19.471,4.373l-18.646-35.89,23.1-43.563a45.391,45.391,0,1,0-29.042-32.672l-29.289,9.076-32.59-61.3.578-.578a45.378,45.378,0,1,0-68.644-5.2l-35.312,48.678a99.831,99.831,0,1,0,0,170.456l35.147,48.76a45.378,45.378,0,1,0,68.562-5.115l-.5-.5,32.012-60.476,28.464,8.993v.66a45.378,45.378,0,1,0,45.378-45.378ZM353.6,112.363a29.619,29.619,0,0,1,41.253,0,28.877,28.877,0,1,1-41.253,0Zm-17.244,45.708a42.238,42.238,0,0,0,5.528,6.765l2.64,2.393-18.069,34.157-18.234-34.57ZM216.066,37.2a29,29,0,0,1,41.253,40.758,29.537,29.537,0,0,1-41.253,0,28.877,28.877,0,0,1,0-40.758Zm-3.96,58.661a44.883,44.883,0,0,0,24.752,7.1,45.46,45.46,0,0,0,17.574-3.548l30.2,57.754-78.957,24.752a96.613,96.613,0,0,0-22.359-33.58c-1.733-1.733-3.465-3.383-5.28-4.95ZM53.779,277.373a83.33,83.33,0,1,1,117.817,0,83.5,83.5,0,0,1-117.735,0Zm203.21,122.355a29.537,29.537,0,0,1-41.253,0,28.877,28.877,0,1,1,41.253,0Zm-2.64-62.126a45.378,45.378,0,0,0-42.16,3.465L178.2,293.792c1.815-1.568,3.465-3.135,5.115-4.785a97.687,97.687,0,0,0,21.781-33l79.04,24.752Zm37.622-71.119-81.928-25.907a100.41,100.41,0,0,0,0-43.48l81.928-25.329,24.752,47.358ZM331.9,279.023l-23.927-7.508,18.316-34.735,14.768,28.052A41.253,41.253,0,0,0,331.9,279.023Zm62.539,37.292a29.619,29.619,0,0,1-41.253,0,28.877,28.877,0,1,1,41.253,0Zm-240.09-106.1v16.5h-33v33h-16.5v-33h-33v-16.5h33v-33h16.5v33Z" transform="translate(-12.849 -12.541)"/>
    </g>
  </g>
</svg>
