<svg xmlns="http://www.w3.org/2000/svg" width="1150.204" height="400.459" viewBox="0 0 1150.204 400.459">
  <path id="icons8-django" d="M139.058,15.99v97.318c-9.386-2.415-20.653-3.235-30.867-3.235C42.422,110.073,0,151.312,0,214.85c0,65.976,39.983,100.281,116.862,100.373,25.673,0,49.454-2.351,81.682-8.447V15.99ZM235.7,16.3V80.24h62.947V16.3Zm0,91.926V237.4c0,54.244-2.822,74.885-11.817,92.69-8.581,17.414-22.038,28.79-49.827,41.695l58.409,27.542c27.789-13.826,41.231-26.314,51.445-46.143,10.927-20.612,14.647-44.528,14.647-94.263V108.231Zm812.511,0c-64.619,0-104.931,40.531-105.046,105.54,0,62.617,39.063,101.5,102.485,101.5,64.227,0,104.552-40.472,104.552-105.091C1150.2,147.146,1111.543,108.231,1048.213,108.231Zm-632.208,1.842c-27.835,0-53.313,5.7-79.975,18.556l.09,48.03c23.556-12.491,48.63-18.96,70.944-18.96,15.229,0,20.758,4.094,20.758,15.366v13.659c-74.073,6.4-104.237,26.566-104.237,70.136,0,40.28,22.717,58.409,73.325,58.409,25.028,0,59.146-2.872,86.175-6.874V182.276c0-25.811-1.634-37.906-6.695-47.176C467.373,118.536,447.015,110.073,416.005,110.073Zm203.218,0c-31.01,0-61.626,4.4-98.8,14.108v188.57h62.857V164.663c12.652-3.681,20.376-4.448,28.98-4.448,22.429,0,32.934,8.9,32.934,32.8V312.752h60.655V190.543c0-31.124-4.165-45.718-17.208-59.038C674.791,117.38,651.452,110.073,619.223,110.073Zm249.99.359c-91.855,0-143.775,39.989-143.775,110.842,0,57.05,35.055,93.095,90.219,93.095,16.287,0,28.6-2.465,40.841-8.492v1.168c0,39.636-17.59,56.252-58.813,56.252a144.012,144.012,0,0,1-67.395-16.534h-.045v57.555c22.038,8.512,43.254,12.131,67.8,12.131,48.217,0,82.167-15.015,101.766-45.334,13.434-20.681,17.972-45.767,17.972-99.205V254.927c-.414-8.512-.395-17.009-.809-25.52l-.4-34.012-.809-26.329v-6.515c12.629,1.2-2.729-1.513,14.018,1.707l21.566-44.93C921.14,113.233,896.2,110.433,869.212,110.433Zm178.1,47.446c24.292,0,38.235,20.034,38.235,53.781,0,34.138-14.324,53.826-38.64,53.826-24.637,0-39.134-19.688-39.134-53.826S1022.171,157.879,1047.314,157.879Zm-932.968,2.336c7.762,0,17.31.829,24.666,3.235V263.464a197.268,197.268,0,0,1-25.071,1.617c-32.229,0-49.827-18.319-49.827-51.445C64.115,179.613,82.509,160.215,114.346,160.215Zm734.378.4h6.56v4.807l.4,20.623.4,28.755c0,8.489.4,16.61.4,23.9v21.521c-8.1,2.415-15.052,4-23.633,4-27.789,0-43.357-17.849-43.357-48.973,0-21.831,7.757-37.227,22.824-45.739C822.131,163.419,836.486,160.228,848.724,160.619ZM430.563,227.34V268.9c-11.732,2-20.007,2.831-29.025,2.831-16.494,0-23.948-5.67-23.948-17.747C377.59,237.858,390.6,231.343,430.563,227.34Z" transform="translate(0 -15.99)"/>
</svg>
