<svg id="docker-1" xmlns="http://www.w3.org/2000/svg" xmlns:xlink="http://www.w3.org/1999/xlink" width="756.207" height="543.78" viewBox="0 0 756.207 543.78">
  <defs>
    <clipPath id="clip-path">
      <path id="Path_10" data-name="Path 10" d="M152.729,439.753c-21.516,0-41.077-17.6-41.077-39.121s17.6-39.121,41.077-39.121,41.077,17.6,41.077,39.121-19.56,39.121-41.077,39.121ZM657.388,226.545c-3.912-31.3-23.473-56.725-48.9-76.286l-9.78-7.824-7.824,9.78c-15.648,17.6-21.517,48.9-19.56,72.374,1.956,17.6,7.824,35.209,17.6,48.9-7.824,3.912-17.6,7.824-25.429,11.736-17.6,5.868-35.209,7.824-52.813,7.824H4.07L2.114,304.786a220.062,220.062,0,0,0,17.6,111.494l7.824,13.692v1.956C74.487,510.171,158.6,545.38,250.531,545.38c176.044,0,320.791-76.286,389.253-240.593,44.989,1.956,89.978-9.78,111.495-52.813l5.868-9.78-9.78-5.868c-25.429-15.648-60.637-17.6-89.978-9.78Zm-252.33-31.3H328.773v76.286h76.286Zm0-95.846H328.773v76.286h76.286Zm0-97.8H328.773V77.886h76.286V1.6Zm93.89,193.648H422.663v76.286h76.286Zm-283.626,0H139.037v76.286h76.286Zm95.846,0H234.883v76.286h76.286Zm-189.736,0H45.147v76.286h76.286V195.248ZM311.169,99.4H234.883v76.286h76.286Zm-95.846,0H139.037v76.286h76.286Z" transform="translate(-0.94 -1.6)"/>
    </clipPath>
  </defs>
  <path id="SVGID_1_" d="M152.729,439.753c-21.516,0-41.077-17.6-41.077-39.121s17.6-39.121,41.077-39.121,41.077,17.6,41.077,39.121-19.56,39.121-41.077,39.121ZM657.388,226.545c-3.912-31.3-23.473-56.725-48.9-76.286l-9.78-7.824-7.824,9.78c-15.648,17.6-21.517,48.9-19.56,72.374,1.956,17.6,7.824,35.209,17.6,48.9-7.824,3.912-17.6,7.824-25.429,11.736-17.6,5.868-35.209,7.824-52.813,7.824H4.07L2.114,304.786a220.062,220.062,0,0,0,17.6,111.494l7.824,13.692v1.956C74.487,510.171,158.6,545.38,250.531,545.38c176.044,0,320.791-76.286,389.253-240.593,44.989,1.956,89.978-9.78,111.495-52.813l5.868-9.78-9.78-5.868c-25.429-15.648-60.637-17.6-89.978-9.78Zm-252.33-31.3H328.773v76.286h76.286Zm0-95.846H328.773v76.286h76.286Zm0-97.8H328.773V77.886h76.286V1.6Zm93.89,193.648H422.663v76.286h76.286Zm-283.626,0H139.037v76.286h76.286Zm95.846,0H234.883v76.286h76.286Zm-189.736,0H45.147v76.286h76.286V195.248ZM311.169,99.4H234.883v76.286h76.286Zm-95.846,0H139.037v76.286h76.286Z" transform="translate(-0.94 -1.6)"/>
  <g id="Group_21" data-name="Group 21" transform="translate(0 0)" clip-path="url(#clip-path)">
    <path id="SVGID_3_" d="M-48.8-21H24886.846V2940.448H-48.8Z" transform="translate(-924.136 -421.065)"/>
  </g>
</svg>
