<svg id="nginx" xmlns="http://www.w3.org/2000/svg" width="741.826" height="155.483" viewBox="0 0 741.826 155.483">
  <path id="Path_11" data-name="Path 11" d="M139.319,155.314a16.09,16.09,0,0,1-11.4-4.719L32.549,55.214V139.2a16.116,16.116,0,0,1-32.233,0V16.3A16.118,16.118,0,0,1,27.83,4.907L123.2,100.289V16.3a16.116,16.116,0,0,1,32.233,0V139.2a16.125,16.125,0,0,1-16.116,16.116M213.95.342l-4.429,8.266-34.25,62.245-4.429,7.86,4.429,7.851L209.523,146.8l4.627,8.257H303.8l4.429-9.063L333.815,94.42,345.3,71.052H319.311l-65.47.2c-8.515-.116-16.348,7.6-16.348,16.116s7.833,16.238,16.348,16.116l39.485-.2-9.669,19.539H232.888L207.7,78.5l25.387-45.93h54l12.59,25.836h32.439l-20.446-49L307.236.342H213.951m163.268-.2c-8.445.1-16.025,7.878-15.916,16.316v42h32.233v-42c.1-8.576-7.749-16.425-16.316-16.316m51.663,155.482a16.121,16.121,0,0,1-16.111-16.116V16.613a16.116,16.116,0,0,1,32.233,0V100.6L540.379,5.215a16.112,16.112,0,0,1,27.507,11.4v122.9a16.116,16.116,0,0,1-32.233,0V55.524l-95.376,95.381a16.1,16.1,0,0,1-11.4,4.719M687.267,77.937,737.4,27.986A16.116,16.116,0,0,0,714.652,5.151L664.441,55.189,614.228,5.151a16.118,16.118,0,0,0-22.755,22.835l50.134,49.953-49.986,49.811a16.114,16.114,0,1,0,22.749,22.827l50.07-49.889L714.5,150.577a16.115,16.115,0,0,0,22.755-22.826L687.267,77.937M377.219,155.166c-8.445-.1-16.025-7.877-15.916-16.315V71.388h32.233v67.463c.1,8.567-7.749,16.418-16.316,16.315" transform="translate(-0.316 -0.141)"/>
</svg>
