<svg id="postgresql" xmlns="http://www.w3.org/2000/svg" width="556.665" height="573.909" viewBox="0 0 556.665 573.909">
  <path id="Path_17" data-name="Path 17" d="M555.489,344.149c-3.346-10.133-12.11-17.191-23.445-18.885-5.345-.8-11.465-.458-18.708,1.035a168.146,168.146,0,0,1-28.827,3.788c25.8-43.561,46.781-93.236,58.858-140,19.53-75.611,9.094-110.057-3.1-125.637C507.991,23.213,460.9,1.059,404.1.381A241.309,241.309,0,0,0,333.31,10.3a263.55,263.55,0,0,0-41.392-3.788c-27.327-.436-51.471,5.521-72.1,17.764a328.744,328.744,0,0,0-50.922-12.782c-49.789-8.174-89.917-1.8-119.268,18.931C14.083,55.527-2.393,99.147.654,160.069c.968,19.343,11.788,78.194,28.824,134.007C39.27,326.158,49.71,352.8,60.511,373.265c15.317,29.023,31.706,46.114,50.1,52.252,10.312,3.435,29.049,5.842,48.755-10.572a42.636,42.636,0,0,0,10.253,8.823,68.216,68.216,0,0,0,19.345,8.152c24.72,6.179,47.875,4.634,67.629-4.028.122,3.514.216,6.87.294,9.769.131,4.7.262,9.312.434,13.623,1.17,29.151,3.154,51.818,9.03,67.677.323.872.756,2.2,1.214,3.612,2.932,8.976,7.834,24,20.306,35.771,12.915,12.191,28.537,15.929,42.844,15.929a96.282,96.282,0,0,0,20.027-2.228c21.4-4.588,45.715-11.576,63.3-36.617,16.627-23.671,24.709-59.325,26.172-115.5.19-1.589.364-3.106.532-4.551l.349-2.969,3.917.344,1.009.068c21.8.994,48.459-3.629,64.831-11.234,12.937-6,54.392-27.889,44.632-57.437" transform="translate(-0.297 -0.364)"/>
  <path id="Path_18" data-name="Path 18" d="M505.174,336.854c-64.824,13.372-69.281-8.575-69.281-8.575,68.442-101.558,97.055-230.472,72.366-262.023C440.9-19.809,324.294,20.895,322.348,21.95l-.626.113a231.192,231.192,0,0,0-43.249-4.505c-29.33-.48-51.58,7.69-68.464,20.493,0,0-208.008-85.692-198.333,107.773,2.058,41.157,58.991,311.419,126.9,229.787,24.82-29.851,48.8-55.089,48.8-55.089a62.95,62.95,0,0,0,41.118,10.5l1.162-.985a45.3,45.3,0,0,0,.464,11.622c-17.494,19.545-12.352,22.976-47.323,30.176-35.387,7.293-14.6,20.276-1.027,23.672,16.454,4.113,54.521,9.942,80.241-26.065l-1.025,4.109c6.853,5.491,11.666,35.71,10.859,63.106s-1.345,46.2,4.054,60.894,10.785,47.746,56.759,37.9c38.413-8.233,58.32-29.565,61.09-65.151,1.964-25.3,6.413-21.557,6.692-44.176l3.568-10.707c4.113-34.293.654-45.357,24.319-40.211l5.754.506c17.416.791,40.215-2.8,53.6-9.022,28.811-13.37,45.9-35.7,17.49-29.831h0" transform="translate(12.74 12.676)"/>
  <path id="Path_19" data-name="Path 19" d="M116.708,83.873c-5.842-.813-11.132-.061-13.809,1.966a5.068,5.068,0,0,0-2.1,3.37c-.336,2.409,1.352,5.072,2.389,6.445a18.051,18.051,0,0,0,11.461,7.149,13.039,13.039,0,0,0,1.835.127c7.073,0,13.505-5.508,14.072-9.573.709-5.092-6.683-8.486-13.852-9.482m193.522.159c-.558-3.991-7.659-5.129-14.4-4.191s-13.257,3.976-12.712,7.975c.436,3.11,6.053,8.42,12.7,8.42a12.13,12.13,0,0,0,1.7-.118,16.375,16.375,0,0,0,9.242-5.057c2.354-2.476,3.718-5.235,3.468-7.029" transform="translate(118.217 93.031)" fill="#fff"/>
  <path id="Path_20" data-name="Path 20" d="M531.34,340.114c-2.472-7.474-10.428-9.878-23.645-7.149-39.245,8.1-53.3,2.489-57.914-.909,30.5-46.471,55.6-102.646,69.138-155.057,6.413-24.827,9.955-47.883,10.245-66.677.32-20.626-3.193-35.784-10.439-45.043-29.212-37.327-72.087-57.35-123.985-57.9-35.679-.4-65.825,8.73-71.668,11.3A178.674,178.674,0,0,0,282.742,13.5c-26.784-.434-49.937,5.979-69.1,19.05a308.5,308.5,0,0,0-56.16-14.726C111.982,10.5,75.83,16.049,50.031,34.325c-30.784,21.81-45,60.8-42.242,115.872.926,18.53,11.485,75.533,28.146,130.123,21.932,71.851,45.774,112.527,70.857,120.894a31.736,31.736,0,0,0,10.055,1.663c9.15,0,20.369-4.124,32.041-18.157q21.355-25.618,44.163-49.972a71.156,71.156,0,0,0,31.773,8.544c.022.29.05.58.076.868q-2.861,3.411-5.6,6.92c-7.677,9.746-9.275,11.775-33.986,16.862-7.029,1.452-25.7,5.3-25.973,18.386-.3,14.3,22.069,20.3,24.617,20.94a105.428,105.428,0,0,0,25.594,3.32c19.842,0,37.3-6.522,51.258-19.14-.429,50.974,1.7,101.2,7.816,116.507,5.013,12.529,17.259,43.147,55.94,43.145a89.736,89.736,0,0,0,18.8-2.134c40.37-8.653,57.9-26.5,64.682-65.833,3.629-21.023,9.857-71.224,12.786-98.151,6.182,1.929,14.14,2.812,22.743,2.81,17.943,0,38.648-3.812,51.633-9.839,14.586-6.775,40.909-23.4,36.135-37.84ZM435.2,158.154a163.329,163.329,0,0,1-2.387,22.7,209.644,209.644,0,0,0-2.864,26.647c-.32,9.9.915,20.184,2.11,30.134,2.415,20.1,4.893,40.786-4.7,61.2a79.578,79.578,0,0,1-4.25-8.738c-1.192-2.89-3.782-7.533-7.367-13.959-13.948-25.014-46.611-83.591-29.89-107.494,4.981-7.115,17.621-14.43,49.348-10.491ZM396.744,23.477c46.5,1.027,83.286,18.423,109.329,51.7,19.975,25.526-2.021,141.676-65.7,241.878q-.96-1.221-1.931-2.435l-.807-1.007c16.455-27.174,13.237-54.061,10.373-77.9-1.177-9.782-2.289-19.022-2.005-27.7a196.179,196.179,0,0,1,2.685-24.718c1.445-9.4,2.916-19.129,2.511-30.6a12.684,12.684,0,0,0,.266-4.311c-1.035-11-13.59-43.908-39.18-73.7-14-16.293-34.411-34.526-62.283-46.824a210.017,210.017,0,0,1,46.737-4.394ZM136.536,374.451c-12.86,15.463-21.74,12.5-24.661,11.526C92.847,379.63,70.766,339.41,51.3,275.632,34.455,220.447,24.611,164.954,23.831,149.393,21.372,100.18,33.3,65.883,59.29,47.451c42.295-29.993,111.831-12.041,139.773-2.936-.4.4-.82.767-1.216,1.17C151.995,91.991,153.082,171.105,153.2,175.942c0,1.866.153,4.508.366,8.141.789,13.307,2.258,38.073-1.665,66.119-3.644,26.063,4.39,51.571,22.039,69.988q2.717,2.83,5.7,5.379c-7.856,8.414-24.929,27.02-43.1,48.882Zm49-65.375c-14.225-14.844-20.685-35.49-17.727-56.65,4.141-29.626,2.613-55.43,1.792-69.292-.116-1.94-.218-3.64-.277-4.981,6.7-5.94,37.739-22.571,59.876-17.5,10.1,2.313,16.256,9.192,18.815,21.023,13.244,61.256,1.753,86.787-7.481,107.3-1.9,4.226-3.7,8.222-5.236,12.354l-1.19,3.2c-3.012,8.078-5.815,15.589-7.553,22.721-15.123-.044-29.833-6.5-41.02-18.179Zm2.321,82.61a35.515,35.515,0,0,1-10.718-4.608,52.342,52.342,0,0,1,11.417-3.4c29.071-5.983,33.561-10.207,43.365-22.656,2.247-2.855,4.8-6.09,8.324-10.031l0,0c5.255-5.885,7.659-4.887,12.019-3.078,3.533,1.46,6.975,5.89,8.37,10.763.66,2.3,1.4,6.67-1.024,10.07C239.132,397.418,209.288,397.05,187.855,391.686ZM340,533.261c-35.564,7.62-48.156-10.526-56.454-31.27-5.356-13.392-7.989-73.783-6.121-140.475a8.036,8.036,0,0,0-.347-2.55,33.673,33.673,0,0,0-.994-4.712c-2.777-9.7-9.545-17.821-17.664-21.187-3.226-1.336-9.146-3.788-16.26-1.968,1.517-6.251,4.148-13.311,7-20.956l1.2-3.215c1.347-3.625,3.038-7.38,4.826-11.356,9.663-21.466,22.9-50.867,8.534-117.289-5.38-24.879-23.344-37.029-50.578-34.206-16.326,1.689-31.263,8.276-38.714,12.054-1.6.811-3.067,1.6-4.436,2.358,2.079-25.066,9.935-71.912,39.322-101.552,18.5-18.658,43.145-27.874,73.168-27.377,59.157.968,97.092,31.327,118.5,56.626,18.449,21.8,28.438,43.759,32.425,55.6-29.982-3.049-50.373,2.868-60.709,17.647-22.488,32.146,12.3,94.538,29.023,124.524,3.067,5.495,5.713,10.245,6.546,12.263,5.445,13.2,12.494,22.006,17.64,28.436,1.578,1.97,3.108,3.882,4.272,5.552-9.081,2.618-25.391,8.667-23.9,38.9-1.2,15.171-9.724,86.2-14.055,111.293C386.5,513.559,374.3,525.907,340,533.263ZM488.441,363.385c-9.286,4.309-24.825,7.542-39.585,8.237-16.3.763-24.6-1.827-26.557-3.42-.915-18.841,6.1-20.81,13.518-22.893,1.166-.327,2.3-.647,3.4-1.031a27.724,27.724,0,0,0,2.249,1.648c13.1,8.649,36.477,9.582,69.476,2.77l.362-.072C506.855,352.785,499.24,358.369,488.441,363.385Z" transform="translate(8.145 7.896)" fill="#fff"/>
</svg>
