<svg xmlns="http://www.w3.org/2000/svg" width="1962" height="287" viewBox="0 0 1962 287">
  <g id="Component_8_1" data-name="Component 8 – 1" transform="translate(0 10)">
    <rect id="Rectangle_45" data-name="Rectangle 45" width="1962" height="40" transform="translate(0 6)"/>
    <rect id="Rectangle_46" data-name="Rectangle 46" width="42" height="91" transform="translate(918 38)"/>
    <rect id="Rectangle_47" data-name="Rectangle 47" width="930" height="42" transform="translate(956 129)"/>
    <g id="Ellipse_18" data-name="Ellipse 18" transform="translate(913)" fill="#fff" stroke="#000" stroke-width="10">
      <circle cx="26" cy="26" r="26" stroke="none"/>
      <circle cx="26" cy="26" r="31" fill="none"/>
    </g>
    <path id="Polygon_4" data-name="Polygon 4" d="M39.5,0,79,69H0Z" transform="translate(1941 111) rotate(90)"/>
    <path id="Subtraction_3" data-name="Subtraction 3" d="M-5437-1972a41.746,41.746,0,0,1-16.349-3.3,41.868,41.868,0,0,1-13.35-9,41.852,41.852,0,0,1-9-13.35A41.726,41.726,0,0,1-5479-2014a41.73,41.73,0,0,1,3.3-16.349,41.848,41.848,0,0,1,9-13.35,41.86,41.86,0,0,1,13.35-9A41.738,41.738,0,0,1-5437-2056v42h42a41.739,41.739,0,0,1-3.3,16.348,41.847,41.847,0,0,1-9,13.35,41.858,41.858,0,0,1-13.35,9A41.74,41.74,0,0,1-5437-1972Z" transform="translate(6397 2143)"/>
    <rect id="Rectangle_49" data-name="Rectangle 49" width="42" height="91" transform="translate(1385 129)"/>
    <rect id="Rectangle_50" data-name="Rectangle 50" width="291" height="42" transform="translate(1423 220)"/>
    <path id="Subtraction_4" data-name="Subtraction 4" d="M-5437-1972a41.746,41.746,0,0,1-16.349-3.3,41.868,41.868,0,0,1-13.35-9,41.852,41.852,0,0,1-9-13.35A41.726,41.726,0,0,1-5479-2014a41.73,41.73,0,0,1,3.3-16.349,41.848,41.848,0,0,1,9-13.35,41.86,41.86,0,0,1,13.35-9A41.738,41.738,0,0,1-5437-2056v42h42a41.739,41.739,0,0,1-3.3,16.348,41.847,41.847,0,0,1-9,13.35,41.858,41.858,0,0,1-13.35,9A41.74,41.74,0,0,1-5437-1972Z" transform="translate(6864 2234)"/>
    <rect id="Rectangle_52" data-name="Rectangle 52" width="42" height="91" transform="translate(1714 129)"/>
    <path id="Subtraction_5" data-name="Subtraction 5" d="M42,0A42.011,42.011,0,0,0,25.652,80.7,41.738,41.738,0,0,0,42,84V42H84A41.964,41.964,0,0,0,42,0Z" transform="translate(1756 262) rotate(180)"/>
    <g id="Ellipse_26" data-name="Ellipse 26" transform="translate(1089 124)" fill="#fff" stroke="#000" stroke-width="10">
      <circle cx="26" cy="26" r="26" stroke="none"/>
      <circle cx="26" cy="26" r="31" fill="none"/>
    </g>
    <g id="Ellipse_27" data-name="Ellipse 27" transform="translate(1380 126)" fill="#fff" stroke="#000" stroke-width="10">
      <circle cx="26" cy="26" r="26" stroke="none"/>
      <circle cx="26" cy="26" r="31" fill="none"/>
    </g>
    <g id="Ellipse_28" data-name="Ellipse 28" transform="translate(1709 126)" fill="#fff" stroke="#000" stroke-width="10">
      <circle cx="26" cy="26" r="26" stroke="none"/>
      <circle cx="26" cy="26" r="31" fill="none"/>
    </g>
    <g id="Ellipse_29" data-name="Ellipse 29" transform="translate(1543 215)" fill="#fff" stroke="#000" stroke-width="10">
      <circle cx="26" cy="26" r="26" stroke="none"/>
      <circle cx="26" cy="26" r="31" fill="none"/>
    </g>
  </g>
</svg>
